<?xml version="1.0" encoding="utf-8"?>
<!-- Generator: Adobe Illustrator 16.0.0, SVG Export Plug-In . SVG Version: 6.00 Build 0)  -->
<!DOCTYPE svg PUBLIC "-//W3C//DTD SVG 1.1//EN" "http://www.w3.org/Graphics/SVG/1.1/DTD/svg11.dtd">
<svg version="1.1" id="Layer_1" xmlns="http://www.w3.org/2000/svg" xmlns:xlink="http://www.w3.org/1999/xlink" x="0px" y="0px"
	 width="841.889px" height="639.775px" viewBox="0 0 841.889 639.775" enable-background="new 0 0 841.889 639.775"
	 xml:space="preserve">
<title>image_large_1</title>
<path fill="#FFFFFF" d="M536.103,397.982l-64.749-64.777c34.299-40.156,29.551-100.515-10.605-134.814
	c-40.157-34.299-100.516-29.551-134.814,10.605c-34.3,40.157-29.551,100.516,10.605,134.814
	c35.803,30.581,88.539,30.547,124.303-0.079l64.735,64.776c2.77,3.036,7.477,3.252,10.513,0.482
	c3.035-2.77,3.252-7.477,0.481-10.512c-0.153-0.168-0.313-0.329-0.481-0.482L536.103,397.982z M318.49,271.31
	c0.06-44.428,36.124-80.395,80.552-80.335s80.395,36.124,80.335,80.551c-0.06,44.386-36.058,80.336-80.443,80.336
	C354.497,351.78,318.512,315.746,318.49,271.31z"/>
</svg>
