<?xml version="1.0" encoding="utf-8"?>
<!-- Generator: Adobe Illustrator 16.0.0, SVG Export Plug-In . SVG Version: 6.00 Build 0)  -->
<!DOCTYPE svg PUBLIC "-//W3C//DTD SVG 1.1//EN" "http://www.w3.org/Graphics/SVG/1.1/DTD/svg11.dtd">
<svg version="1.1" id="Layer_1" xmlns="http://www.w3.org/2000/svg" xmlns:xlink="http://www.w3.org/1999/xlink" x="0px" y="0px"
	 width="841.889px" height="1190.551px" viewBox="0 0 841.889 1190.551" enable-background="new 0 0 841.889 1190.551"
	 xml:space="preserve">
<title>image_large_1</title>
<path id="bag" fill="#FFFFFF" d="M583.292,378.811h-48.38c-5.316-62.942-60.652-109.658-123.595-104.341
	c-55.565,4.693-99.647,48.775-104.341,104.341h-48.38c-37.359,0-67.645,30.286-67.645,67.646v297.637
	c0,37.359,30.285,67.646,67.645,67.646h324.695c37.359,0,67.645-30.286,67.645-67.646V446.457
	C650.937,409.097,620.652,378.811,583.292,378.811z M420.945,301.019c44.506,0.139,81.86,33.573,86.91,77.792h-173.82
	C339.084,334.593,376.439,301.158,420.945,301.019z M623.879,744.094c0,22.416-18.171,40.587-40.587,40.587l0,0H258.597
	c-22.415,0-40.587-18.171-40.587-40.587l0,0V446.457c0-22.416,18.172-40.587,40.587-40.587h324.695
	c22.416,0,40.587,18.171,40.587,40.587V744.094z"/>
</svg>
